<svg xmlns="http://www.w3.org/2000/svg" viewBox="0 0 384 384"><defs></defs><rect width="384" height="384" fill="#2c2932"/><rect x="3" y="3" width="36" height="42" rx="12" fill="rgb(95,89,97)"/><rect x="6" y="6" width="30" height="5" rx="3" fill="#ffffff" opacity="0.08"/><rect x="45" y="3" width="53" height="42" rx="12" fill="rgb(92,86,94)"/><rect x="48" y="6" width="47" height="5" rx="3" fill="#ffffff" opacity="0.08"/><rect x="104" y="3" width="48" height="42" rx="12" fill="rgb(95,89,97)"/><rect x="107" y="6" width="42" height="5" rx="3" fill="#ffffff" opacity="0.08"/><rect x="158" y="3" width="38" height="42" rx="12" fill="rgb(94,88,96)"/><rect x="161" y="6" width="32" height="5" rx="3" fill="#ffffff" opacity="0.08"/><rect x="202" y="3" width="46" height="42" rx="12" fill="rgb(91,85,93)"/><rect x="205" y="6" width="40" height="5" rx="3" fill="#ffffff" opacity="0.08"/><rect x="254" y="3" width="44" height="42" rx="12" fill="rgb(86,80,88)"/><rect x="257" y="6" width="38" height="5" rx="3" fill="#ffffff" opacity="0.08"/><rect x="304" y="3" width="45" height="42" rx="12" fill="rgb(87,81,89)"/><rect x="307" y="6" width="39" height="5" rx="3" fill="#ffffff" opacity="0.08"/><rect x="355" y="3" width="48" height="42" rx="12" fill="rgb(91,85,93)"/><rect x="358" y="6" width="42" height="5" rx="3" fill="#ffffff" opacity="0.08"/><rect x="-21" y="51" width="45" height="42" rx="12" fill="rgb(97,91,99)"/><rect x="-18" y="54" width="39" height="5" rx="3" fill="#ffffff" opacity="0.08"/><rect x="30" y="51" width="43" height="42" rx="12" fill="rgb(89,83,91)"/><rect x="33" y="54" width="37" height="5" rx="3" fill="#ffffff" opacity="0.08"/><rect x="79" y="51" width="48" height="42" rx="12" fill="rgb(92,86,94)"/><rect x="82" y="54" width="42" height="5" rx="3" fill="#ffffff" opacity="0.08"/><rect x="133" y="51" width="47" height="42" rx="12" fill="rgb(92,86,94)"/><rect x="136" y="54" width="41" height="5" rx="3" fill="#ffffff" opacity="0.08"/><rect x="186" y="51" width="37" height="42" rx="12" fill="rgb(87,81,89)"/><rect x="189" y="54" width="31" height="5" rx="3" fill="#ffffff" opacity="0.08"/><rect x="229" y="51" width="35" height="42" rx="12" fill="rgb(87,81,89)"/><rect x="232" y="54" width="29" height="5" rx="3" fill="#ffffff" opacity="0.08"/><rect x="270" y="51" width="57" height="42" rx="12" fill="rgb(91,85,93)"/><rect x="273" y="54" width="51" height="5" rx="3" fill="#ffffff" opacity="0.08"/><rect x="333" y="51" width="53" height="42" rx="12" fill="rgb(90,84,92)"/><rect x="336" y="54" width="47" height="5" rx="3" fill="#ffffff" opacity="0.08"/><rect x="3" y="99" width="53" height="42" rx="12" fill="rgb(87,81,89)"/><rect x="6" y="102" width="47" height="5" rx="3" fill="#ffffff" opacity="0.08"/><rect x="62" y="99" width="51" height="42" rx="12" fill="rgb(101,95,103)"/><rect x="65" y="102" width="45" height="5" rx="3" fill="#ffffff" opacity="0.08"/><rect x="119" y="99" width="52" height="42" rx="12" fill="rgb(93,87,95)"/><rect x="122" y="102" width="46" height="5" rx="3" fill="#ffffff" opacity="0.08"/><rect x="177" y="99" width="44" height="42" rx="12" fill="rgb(87,81,89)"/><rect x="180" y="102" width="38" height="5" rx="3" fill="#ffffff" opacity="0.08"/><rect x="227" y="99" width="37" height="42" rx="12" fill="rgb(102,96,104)"/><rect x="230" y="102" width="31" height="5" rx="3" fill="#ffffff" opacity="0.08"/><rect x="270" y="99" width="43" height="42" rx="12" fill="rgb(99,93,101)"/><rect x="273" y="102" width="37" height="5" rx="3" fill="#ffffff" opacity="0.08"/><rect x="319" y="99" width="54" height="42" rx="12" fill="rgb(92,86,94)"/><rect x="322" y="102" width="48" height="5" rx="3" fill="#ffffff" opacity="0.08"/><rect x="379" y="99" width="49" height="42" rx="12" fill="rgb(92,86,94)"/><rect x="382" y="102" width="43" height="5" rx="3" fill="#ffffff" opacity="0.08"/><rect x="-21" y="147" width="41" height="42" rx="12" fill="rgb(100,94,102)"/><rect x="-18" y="150" width="35" height="5" rx="3" fill="#ffffff" opacity="0.08"/><rect x="26" y="147" width="47" height="42" rx="12" fill="rgb(101,95,103)"/><rect x="29" y="150" width="41" height="5" rx="3" fill="#ffffff" opacity="0.08"/><rect x="79" y="147" width="35" height="42" rx="12" fill="rgb(93,87,95)"/><rect x="82" y="150" width="29" height="5" rx="3" fill="#ffffff" opacity="0.08"/><rect x="120" y="147" width="47" height="42" rx="12" fill="rgb(100,94,102)"/><rect x="123" y="150" width="41" height="5" rx="3" fill="#ffffff" opacity="0.08"/><rect x="173" y="147" width="41" height="42" rx="12" fill="rgb(99,93,101)"/><rect x="176" y="150" width="35" height="5" rx="3" fill="#ffffff" opacity="0.08"/><rect x="220" y="147" width="40" height="42" rx="12" fill="rgb(101,95,103)"/><rect x="223" y="150" width="34" height="5" rx="3" fill="#ffffff" opacity="0.08"/><rect x="266" y="147" width="40" height="42" rx="12" fill="rgb(87,81,89)"/><rect x="269" y="150" width="34" height="5" rx="3" fill="#ffffff" opacity="0.08"/><rect x="312" y="147" width="35" height="42" rx="12" fill="rgb(94,88,96)"/><rect x="315" y="150" width="29" height="5" rx="3" fill="#ffffff" opacity="0.08"/><rect x="353" y="147" width="42" height="42" rx="12" fill="rgb(93,87,95)"/><rect x="356" y="150" width="36" height="5" rx="3" fill="#ffffff" opacity="0.08"/><rect x="3" y="195" width="50" height="42" rx="12" fill="rgb(92,86,94)"/><rect x="6" y="198" width="44" height="5" rx="3" fill="#ffffff" opacity="0.08"/><rect x="59" y="195" width="58" height="42" rx="12" fill="rgb(93,87,95)"/><rect x="62" y="198" width="52" height="5" rx="3" fill="#ffffff" opacity="0.08"/><rect x="123" y="195" width="47" height="42" rx="12" fill="rgb(94,88,96)"/><rect x="126" y="198" width="41" height="5" rx="3" fill="#ffffff" opacity="0.08"/><rect x="176" y="195" width="38" height="42" rx="12" fill="rgb(96,90,98)"/><rect x="179" y="198" width="32" height="5" rx="3" fill="#ffffff" opacity="0.08"/><rect x="220" y="195" width="35" height="42" rx="12" fill="rgb(96,90,98)"/><rect x="223" y="198" width="29" height="5" rx="3" fill="#ffffff" opacity="0.08"/><rect x="261" y="195" width="52" height="42" rx="12" fill="rgb(89,83,91)"/><rect x="264" y="198" width="46" height="5" rx="3" fill="#ffffff" opacity="0.08"/><rect x="319" y="195" width="52" height="42" rx="12" fill="rgb(98,92,100)"/><rect x="322" y="198" width="46" height="5" rx="3" fill="#ffffff" opacity="0.08"/><rect x="377" y="195" width="54" height="42" rx="12" fill="rgb(87,81,89)"/><rect x="380" y="198" width="48" height="5" rx="3" fill="#ffffff" opacity="0.08"/><rect x="-21" y="243" width="49" height="42" rx="12" fill="rgb(98,92,100)"/><rect x="-18" y="246" width="43" height="5" rx="3" fill="#ffffff" opacity="0.08"/><rect x="34" y="243" width="36" height="42" rx="12" fill="rgb(99,93,101)"/><rect x="37" y="246" width="30" height="5" rx="3" fill="#ffffff" opacity="0.08"/><rect x="76" y="243" width="40" height="42" rx="12" fill="rgb(91,85,93)"/><rect x="79" y="246" width="34" height="5" rx="3" fill="#ffffff" opacity="0.08"/><rect x="122" y="243" width="44" height="42" rx="12" fill="rgb(95,89,97)"/><rect x="125" y="246" width="38" height="5" rx="3" fill="#ffffff" opacity="0.08"/><rect x="172" y="243" width="55" height="42" rx="12" fill="rgb(101,95,103)"/><rect x="175" y="246" width="49" height="5" rx="3" fill="#ffffff" opacity="0.08"/><rect x="233" y="243" width="54" height="42" rx="12" fill="rgb(96,90,98)"/><rect x="236" y="246" width="48" height="5" rx="3" fill="#ffffff" opacity="0.08"/><rect x="293" y="243" width="47" height="42" rx="12" fill="rgb(102,96,104)"/><rect x="296" y="246" width="41" height="5" rx="3" fill="#ffffff" opacity="0.08"/><rect x="346" y="243" width="40" height="42" rx="12" fill="rgb(94,88,96)"/><rect x="349" y="246" width="34" height="5" rx="3" fill="#ffffff" opacity="0.08"/><rect x="3" y="291" width="44" height="42" rx="12" fill="rgb(98,92,100)"/><rect x="6" y="294" width="38" height="5" rx="3" fill="#ffffff" opacity="0.08"/><rect x="53" y="291" width="49" height="42" rx="12" fill="rgb(88,82,90)"/><rect x="56" y="294" width="43" height="5" rx="3" fill="#ffffff" opacity="0.08"/><rect x="108" y="291" width="42" height="42" rx="12" fill="rgb(92,86,94)"/><rect x="111" y="294" width="36" height="5" rx="3" fill="#ffffff" opacity="0.08"/><rect x="156" y="291" width="35" height="42" rx="12" fill="rgb(98,92,100)"/><rect x="159" y="294" width="29" height="5" rx="3" fill="#ffffff" opacity="0.08"/><rect x="197" y="291" width="53" height="42" rx="12" fill="rgb(90,84,92)"/><rect x="200" y="294" width="47" height="5" rx="3" fill="#ffffff" opacity="0.08"/><rect x="256" y="291" width="58" height="42" rx="12" fill="rgb(94,88,96)"/><rect x="259" y="294" width="52" height="5" rx="3" fill="#ffffff" opacity="0.08"/><rect x="320" y="291" width="55" height="42" rx="12" fill="rgb(87,81,89)"/><rect x="323" y="294" width="49" height="5" rx="3" fill="#ffffff" opacity="0.08"/><rect x="381" y="291" width="39" height="42" rx="12" fill="rgb(100,94,102)"/><rect x="384" y="294" width="33" height="5" rx="3" fill="#ffffff" opacity="0.08"/><rect x="-21" y="339" width="52" height="42" rx="12" fill="rgb(101,95,103)"/><rect x="-18" y="342" width="46" height="5" rx="3" fill="#ffffff" opacity="0.08"/><rect x="37" y="339" width="57" height="42" rx="12" fill="rgb(98,92,100)"/><rect x="40" y="342" width="51" height="5" rx="3" fill="#ffffff" opacity="0.08"/><rect x="100" y="339" width="46" height="42" rx="12" fill="rgb(92,86,94)"/><rect x="103" y="342" width="40" height="5" rx="3" fill="#ffffff" opacity="0.08"/><rect x="152" y="339" width="34" height="42" rx="12" fill="rgb(92,86,94)"/><rect x="155" y="342" width="28" height="5" rx="3" fill="#ffffff" opacity="0.08"/><rect x="192" y="339" width="39" height="42" rx="12" fill="rgb(86,80,88)"/><rect x="195" y="342" width="33" height="5" rx="3" fill="#ffffff" opacity="0.08"/><rect x="237" y="339" width="53" height="42" rx="12" fill="rgb(94,88,96)"/><rect x="240" y="342" width="47" height="5" rx="3" fill="#ffffff" opacity="0.08"/><rect x="296" y="339" width="37" height="42" rx="12" fill="rgb(98,92,100)"/><rect x="299" y="342" width="31" height="5" rx="3" fill="#ffffff" opacity="0.08"/><rect x="339" y="339" width="58" height="42" rx="12" fill="rgb(98,92,100)"/><rect x="342" y="342" width="52" height="5" rx="3" fill="#ffffff" opacity="0.08"/></svg>